<?xml version="1.0" encoding="UTF-8" standalone="no"?>
<!-- Created with Inkscape (http://www.inkscape.org/) -->

<svg
   width="210mm"
   height="297mm"
   viewBox="0 0 210 297"
   version="1.1"
   id="svg1"
   inkscape:version="1.3.2 (091e20e, 2023-11-25, custom)"
   sodipodi:docname="Versão nova projeto IVO.svg"
   xmlns:inkscape="http://www.inkscape.org/namespaces/inkscape"
   xmlns:sodipodi="http://sodipodi.sourceforge.net/DTD/sodipodi-0.dtd"
   xmlns="http://www.w3.org/2000/svg"
   xmlns:svg="http://www.w3.org/2000/svg">
  <sodipodi:namedview
     id="namedview1"
     pagecolor="#ffffff"
     bordercolor="#000000"
     borderopacity="0.25"
     inkscape:showpageshadow="2"
     inkscape:pageopacity="0.0"
     inkscape:pagecheckerboard="0"
     inkscape:deskcolor="#d1d1d1"
     inkscape:document-units="mm"
     inkscape:zoom="0.49531425"
     inkscape:cx="396.71784"
     inkscape:cy="561.25984"
     inkscape:window-width="1366"
     inkscape:window-height="745"
     inkscape:window-x="-8"
     inkscape:window-y="-8"
     inkscape:window-maximized="1"
     inkscape:current-layer="layer1" />
  <defs
     id="defs1" />
  <g
     inkscape:label="Camada 1"
     inkscape:groupmode="layer"
     id="layer1">
    <g
       id="g147"
       style="fill:#000000;fill-opacity:0;stroke:#008dcd;stroke-opacity:1"
       transform="translate(-78.544703,-46.620813)">
      <path
         style="fill:#000000;fill-opacity:0;stroke:#008dcd;stroke-width:1.77948;stroke-linecap:round;stroke-dasharray:none;stroke-opacity:1"
         d="m 159.85012,127.7632 c 0.20806,-0.39784 1.28348,-4.27823 1.89093,-6.42724 1.18478,-4.19143 3.07062,-11.56083 3.4202,-12.61145 0.44095,-1.32519 1.40468,-4.04663 2.19883,-5.96785 0.76083,-1.84057 2.60895,-5.656081 4.64111,-5.653954 3.1886,0.0036 3.46651,7.916614 3.42326,16.364374 -0.0162,3.16308 0.42521,15.27003 0.68934,24.00885 0.26413,8.73881 -1.59818,13.45901 3.26175,15.62305 1.39119,0.61947 3.36316,-0.34267 3.94846,-2.29826 1.01752,-3.39969 -2.17662,-6.73451 -4.92318,-9.72927 -3.47757,-3.79184 -6.19143,-5.43259 -9.7956,-7.34887 -2.77505,-1.47546 -8.90857,-3.08832 -8.90857,-3.08832"
         id="path132"
         sodipodi:nodetypes="casssszassac" />
      <path
         id="path133"
         style="fill:#000000;fill-opacity:0;stroke:#008dcd;stroke-width:1.77948;stroke-linecap:round;stroke-dasharray:none;stroke-opacity:1"
         d="m 160.03927,127.12829 c -0.35906,1.53942 -1.29275,2.93472 -1.91432,4.39635 -4.79559,11.27673 -9.57892,20.3127 -23.198,21.43231 -12.8982,1.06035 -27.15945,-12.20734 -27.15945,-27.3695 0,-15.16216 13.06368,-28.493179 28.22584,-28.493188 3.96962,0 0.74377,-0.11539 4.7213,0.07162"
         sodipodi:nodetypes="cssssc" />
    </g>
    <path
       style="fill:none;stroke:#008dcd;stroke-width:1.77948;stroke-linecap:round;stroke-dasharray:none;stroke-opacity:1"
       d="m 25.231407,84.732347 c 19.72392,-0.5941 28.06511,-14.93987 28.06511,-14.93987"
       id="path134"
       sodipodi:nodetypes="cc" />
    <path
       id="path135"
       style="fill:#ff8308;fill-opacity:1;stroke:#ff8308;stroke-width:0.44487;stroke-dasharray:none;stroke-opacity:1"
       d="m 61.793907,69.683827 c -0.24138,0.77482 -1.27718,1.97313 -2.4512,1.60739 -1.17402,-0.36574 -1.31591,-1.76456 -1.07454,-2.53937 0.24137,-0.77481 0.52338,0.0381 1.69738,0.40399 1.17401,0.36574 2.06974,-0.24682 1.82837,0.52796 z"
       sodipodi:nodetypes="sssss" />
    <path
       id="path136"
       style="fill:#ff8308;fill-opacity:1;stroke:#ff8308;stroke-width:0.44487;stroke-dasharray:none;stroke-opacity:1"
       d="m 59.909837,75.747677 c 0,0.81021 -0.62061,2.25998 -1.82712,2.25998 -1.20652,0 -1.74768,-1.29118 -1.74768,-2.10137 0,-0.81022 0.50144,-0.11896 1.70795,-0.11896 1.20652,0 1.86685,-0.84985 1.86685,-0.0397 z"
       sodipodi:nodetypes="sssss" />
    <path
       id="path137"
       style="fill:#ff8308;fill-opacity:1;stroke:#ff8308;stroke-width:0.44487;stroke-dasharray:none;stroke-opacity:1"
       d="m 58.881387,82.346557 c 0,0.56292 -0.46779,1.57022 -1.37722,1.57022 -0.90944,0 -1.31734,-0.89711 -1.31734,-1.46003 0,-0.56293 0.37796,-0.0827 1.2874,-0.0827 0.90943,0 1.40716,-0.59048 1.40716,-0.0276 z"
       sodipodi:nodetypes="sssss" />
    <path
       id="path138"
       style="fill:#ff8308;fill-opacity:1;stroke:#ff8308;stroke-width:0.44487;stroke-dasharray:none;stroke-opacity:1"
       d="m 59.515997,79.179157 c 0,0.752 -0.55824,2.09763 -1.64351,2.09763 -1.08528,0 -1.57206,-1.19843 -1.57206,-1.95043 0,-0.75199 0.45106,-0.1104 1.53633,-0.1104 1.08528,0 1.67924,-0.7888 1.67924,-0.0369 z"
       sodipodi:nodetypes="sssss" />
    <path
       id="path139"
       style="fill:#ff8308;fill-opacity:1;stroke:#ff8308;stroke-width:0.44487;stroke-dasharray:none;stroke-opacity:1"
       d="m 62.697477,66.774247 c -0.40386,0.67122 -1.6238,1.5731 -2.59052,0.99143 -0.96672,-0.58167 -0.75669,-1.91225 -0.35283,-2.58346 0.40388,-0.67123 0.46107,0.14321 1.42779,0.72486 0.96672,0.58168 1.91943,0.19595 1.51556,0.86717 z"
       sodipodi:nodetypes="sssss" />
    <path
       id="path140"
       style="fill:#ff8308;fill-opacity:1;stroke:#ff8308;stroke-width:0.44487;stroke-dasharray:none;stroke-opacity:1"
       d="m 63.480087,64.191257 c -0.30678,0.48379 -1.17149,1.14613 -1.78544,0.75074 -0.61396,-0.39536 -0.40046,-1.3437 -0.0937,-1.82749 0.30676,-0.4838 0.30019,0.0933 0.91415,0.48866 0.61396,0.39539 1.27173,0.10431 0.96496,0.58814 z"
       sodipodi:nodetypes="sssss" />
    <path
       id="path141"
       style="fill:#ff8308;fill-opacity:1;stroke:#ff8308;stroke-width:0.44487;stroke-dasharray:none;stroke-opacity:1"
       d="m 58.469897,84.645847 c 0,0.51701 -0.37519,1.44218 -1.1046,1.44218 -0.72941,0 -1.05656,-0.82396 -1.05656,-1.34099 0,-0.51702 0.30315,-0.0759 1.03256,-0.0759 0.7294,0 1.1286,-0.54232 1.1286,-0.0253 z"
       sodipodi:nodetypes="sssss" />
    <path
       id="path142"
       style="fill:#ff8308;fill-opacity:1;stroke:#ff8308;stroke-width:0.44487;stroke-dasharray:none;stroke-opacity:1"
       d="m 58.056267,86.984667 c 0,0.39602 -0.25088,1.10465 -0.73864,1.10465 -0.48776,0 -0.70653,-0.63112 -0.70653,-1.02713 0,-0.39602 0.20271,-0.0582 0.69047,-0.0582 0.48776,0 0.7547,-0.41539 0.7547,-0.0194 z"
       sodipodi:nodetypes="sssss" />
    <path
       id="path143"
       style="fill:#ff8308;fill-opacity:1;stroke:#ff8308;stroke-width:0.44487;stroke-dasharray:none;stroke-opacity:1"
       d="m 64.599847,62.128227 c -0.23841,0.41377 -0.97481,0.97421 -1.57709,0.62435 -0.60226,-0.34986 -0.49243,-1.16617 -0.25402,-1.57996 0.23841,-0.41377 0.28528,0.0847 0.88755,0.43456 0.60228,0.34986 1.18196,0.10733 0.94354,0.52111 z"
       sodipodi:nodetypes="sssss" />
    <path
       id="path144"
       style="fill:#ff8308;fill-opacity:1;stroke:#ff8308;stroke-width:0.44487;stroke-dasharray:none;stroke-opacity:1"
       d="m 65.398797,60.301607 c -0.22833,0.38747 -0.70561,0.74067 -1.08054,0.51973 -0.37492,-0.22094 -0.30334,-0.71105 -0.075,-1.09851 0.22831,-0.38746 0.18938,0.0348 0.56431,0.25582 0.37494,0.22094 0.8196,-0.0649 0.59134,0.32283 z"
       sodipodi:nodetypes="ssssss" />
    <path
       id="path145"
       style="fill:#ff8308;fill-opacity:1;stroke:#ff8308;stroke-width:0.44487;stroke-dasharray:none;stroke-opacity:1"
       d="m 57.680857,88.939497 c 0,0.33267 -0.12783,0.92791 -0.37635,0.92791 -0.24853,0 -0.35999,-0.53013 -0.35999,-0.86279 0,-0.33266 0.10329,-0.0488 0.35181,-0.0488 0.24851,0 0.38453,-0.34894 0.38453,-0.0163 z"
       sodipodi:nodetypes="sssss" />
    <path
       id="path146"
       style="fill:#ff8308;fill-opacity:1;stroke:#ff8308;stroke-width:0.44487;stroke-dasharray:none;stroke-opacity:1"
       d="m 60.659907,72.837847 c -0.18918,0.79243 -1.12709,2.04132 -2.29234,1.71263 -1.16524,-0.3287 -1.38639,-1.739 -1.1972,-2.53143 0.18919,-0.79244 0.51206,0.0202 1.6773,0.34897 1.16526,0.32872 2.00144,-0.32261 1.81225,0.46981 z"
       sodipodi:nodetypes="sssss" />
    <ellipse
       style="fill:#ff8308;fill-opacity:1;stroke:#ff8308;stroke-width:0.44487;stroke-dasharray:none;stroke-opacity:1"
       id="ellipse146"
       ry="3.232954"
       rx="2.8961883"
       cy="55.985046"
       cx="67.332726" />
    <path
       style="display:inline;fill:none;stroke:#00a245;stroke-width:1.77948;stroke-linecap:round;stroke-dasharray:none;stroke-opacity:0.796078"
       d="m 43.690477,109.12915 c 4.63393,-0.47527 10.66892,-4.83227 14.68478,-12.046603 4.54486,-8.16466 4.28688,-18.68912 5.37655,-24.38755 0.83974,-4.3914 2.59383,-7.63849 5.34177,-10.40347 2.68654,-2.70321 6.54894,-3.47222 10.13852,-5.28521 3.28718,-1.66025 6.04701,-4.433089 8.49994,-7.057486"
       id="path147"
       sodipodi:nodetypes="cssasc"
       inkscape:label="letra I" />
    <rect
       style="fill:#008dcd;fill-opacity:1;stroke:none;stroke-width:1.54193;stroke-linecap:round;stroke-opacity:1"
       id="rect147"
       width="9.6097956"
       height="9.901001"
       x="112.64231"
       y="36.247917"
       ry="0.82365477" />
    <rect
       style="fill:#00a245;fill-opacity:0.796078;stroke:none;stroke-width:1.54193;stroke-linecap:round;stroke-opacity:0.796078"
       id="rect148"
       width="9.6097956"
       height="9.901001"
       x="112.64231"
       y="49.643387"
       ry="0.82365477" />
    <rect
       style="fill:#ff8308;fill-opacity:1;stroke:none;stroke-width:1.54193;stroke-linecap:round;stroke-opacity:1"
       id="rect149"
       width="9.6097956"
       height="9.901001"
       x="112.64231"
       y="63.038857"
       ry="0.82365477" />
  </g>
</svg>
